<svg width="110" height="83" viewBox="0 0 110 83" fill="none" xmlns="http://www.w3.org/2000/svg">
<path d="M106.602 74.2836C59.9092 77.7566 40.5183 47.4322 36.6594 31.8358L25.5651 30.8711C17.0434 31.9966 0.385829 38.5889 1.92938 55.9539C3.47294 73.3189 16.0786 79.268 22.1886 80.0719C45.5027 80.2327 93.6745 80.4578 99.8487 80.0719C106.023 79.686 106.923 76.0522 106.602 74.2836Z" fill="#F0BC5E"/>
<path d="M0.786592 50.4301L0.793318 50.3974L0.791244 50.3641C0.789525 50.3365 0.789228 50.3089 0.790353 50.2813L7.82713 17.3567C9.98771 7.40173 18.7787 0.287367 28.9654 0.25H82.2375C92.4244 0.288067 101.216 7.40221 103.377 17.3571C103.377 17.3576 103.378 17.3581 103.378 17.3586L108.793 43.8909C108.793 43.8918 108.792 43.8927 108.792 43.8937C108.792 43.9073 108.791 43.926 108.794 43.9478L108.795 43.9582L108.797 43.9685C110.169 50.9313 107.301 58.0476 101.484 62.1129L101.03 62.4301L101.568 62.5607C105.608 63.5412 108.609 66.9342 109.089 71.0632C109.358 73.8084 108.454 76.5395 106.601 78.5829C104.748 80.627 102.117 81.7928 99.3576 81.7927L27.1454 81.7926L27.138 81.7928C19.1571 82.0308 11.506 78.604 6.36967 72.4909C1.23336 66.3778 -0.823456 58.2505 0.786592 50.4301ZM10.9046 18.0109L10.9045 18.0116L6.67836 37.7548L6.49667 38.6036L7.10201 37.9814C7.17487 37.9065 7.23962 37.8297 7.2979 37.7603L7.30129 37.7563C7.35989 37.6866 7.4119 37.6247 7.46791 37.5663L7.46931 37.5648C12.3923 32.3463 19.2558 29.3982 26.43 29.4207H26.4307H91.1532C95.5672 29.4221 99.8247 31.0558 103.107 34.0075L103.67 34.5147L103.519 33.7716L100.297 17.9994L100.296 17.9962C98.4453 9.49744 90.9368 3.42674 82.2389 3.39634H82.238L28.965 3.39634L28.964 3.39634C20.2612 3.42809 12.7506 9.50605 10.9046 18.0109ZM26.4304 62.2378H26.4307H91.1533C99.3466 62.2378 105.989 55.5958 105.989 47.4024C105.989 39.2091 99.3466 32.5671 91.1533 32.5671H26.4307H26.4305C20.1204 32.574 14.0888 35.166 9.74095 39.7391C5.39315 44.3123 3.10894 50.4671 3.42056 56.7695L3.42081 56.7733C4.2283 69.2264 14.67 78.8522 27.1473 78.6463H99.3576H99.358C101.226 78.6434 103.006 77.855 104.264 76.4739C105.532 75.0879 106.148 73.226 105.956 71.3571L105.956 71.3571L105.955 71.3496C105.494 67.8814 102.501 65.3135 99.0032 65.3841H26.431C23.6696 65.3814 21.0379 64.2124 19.1845 62.1654C17.3319 60.1192 16.4294 57.386 16.6992 54.6391C17.3369 49.5648 21.6785 45.7751 26.7927 45.8293H26.7954H91.1533C92.0221 45.8293 92.7265 46.5336 92.7265 47.4024C92.7265 48.2713 92.0221 48.9756 91.1533 48.9756H26.798C23.3011 48.9044 20.3058 51.4654 19.8329 54.9311L19.8328 54.9311L19.8319 54.9402C19.6464 56.8049 20.2574 58.6612 21.5141 60.0511C22.7709 61.441 24.5565 62.2352 26.4304 62.2378Z" fill="#0C0C0C" stroke="white" stroke-width="0.5"/>
<path d="M16.1713 20.7402L16.1707 20.7401C15.7624 20.6536 15.4052 20.4084 15.1777 20.0585C14.9503 19.7087 14.8712 19.283 14.9577 18.8749C16.3911 12.2796 22.2162 7.56716 28.9654 7.54266H43.7509C44.6197 7.54266 45.324 8.247 45.324 9.11583C45.324 9.98467 44.6197 10.689 43.7509 10.689L28.965 10.689L28.9641 10.689C23.6993 10.7072 19.1549 14.383 18.0369 19.5277L18.0366 19.5288C17.8823 20.2547 17.2417 20.7739 16.4997 20.7748H16.4996C16.3892 20.7749 16.2792 20.7634 16.1713 20.7402Z" fill="#0C0C0C" stroke="white" stroke-width="0.5"/>
<path d="M52.6167 9.11583C52.6167 9.98467 51.9123 10.689 51.0435 10.689C50.1747 10.689 49.4703 9.98467 49.4703 9.11583C49.4703 8.247 50.1747 7.54266 51.0435 7.54266C51.9123 7.54266 52.6167 8.247 52.6167 9.11583Z" fill="#0C0C0C" stroke="white" stroke-width="0.5"/>
</svg>
