<svg width="129" height="107" viewBox="0 0 129 107" fill="none" xmlns="http://www.w3.org/2000/svg">
<path d="M66.3409 93.0129C31.0016 86.0186 14.8044 38.2554 11.1232 15.248H1V85.1904L66.3409 104.977V93.0129Z" fill="#F0BC5E"/>
<path d="M67.1737 12.4871V104.977L104.623 85.117V14.7568L67.1737 12.4871Z" stroke="black" stroke-width="2.5" stroke-linejoin="round"/>
<path d="M1.92029 14.7568L66.6062 12.4871V104.409L1.92029 85.6844V14.7568Z" stroke="black" stroke-width="2.5" stroke-linejoin="round"/>
<path d="M67.1737 39.1559L104.623 34.0491" stroke="black"/>
<path d="M67.7411 44.8301L105.191 39.7233" stroke="black"/>
<path d="M66.6062 51.6392L104.056 46.5324" stroke="black"/>
<path d="M66.6062 59.0156L104.056 52.2066" stroke="black"/>
<path d="M66.6062 66.9595L104.056 59.0156" stroke="black"/>
<path d="M67.1736 76.6057L104.623 66.3921" stroke="black"/>
<path d="M67.1737 86.8192L104.623 73.2011" stroke="black"/>
<path d="M67.741 95.3305L104.623 79.4428" stroke="black"/>
<path d="M126.989 6.32332L107.857 0.583618C107.589 0.503215 107.303 0.503215 107.036 0.583618L87.9031 6.32332C87.2987 6.50461 86.8848 7.06096 86.8848 7.69199V28.7375C86.8848 31.4748 87.9929 34.277 90.1784 37.066C91.8476 39.1962 94.1568 41.3351 97.042 43.4236C101.889 46.932 106.661 49.0843 106.862 49.1741C107.048 49.2573 107.247 49.2989 107.446 49.2989C107.645 49.2989 107.844 49.2574 108.03 49.1741C108.231 49.0843 113.003 46.932 117.85 43.4236C120.735 41.3351 123.044 39.1962 124.714 37.066C126.899 34.2771 128.007 31.4749 128.007 28.7375V7.69199C128.007 7.06096 127.593 6.50461 126.989 6.32332Z" fill="white"/>
<path d="M107.785 0.823044L107.785 0.823074L126.917 6.56278L126.989 6.32332L126.917 6.56278C127.416 6.71235 127.757 7.17132 127.757 7.69195V28.7375C127.757 31.4044 126.678 34.1538 124.517 36.9118C122.866 39.0189 120.575 41.1423 117.703 43.2211C112.877 46.7148 108.122 48.8589 107.928 48.9459L107.928 48.946C107.774 49.0146 107.61 49.0489 107.446 49.0489C107.282 49.0489 107.118 49.0146 106.964 48.9459L106.964 48.9459C106.77 48.8588 102.015 46.7148 97.1886 43.2211C94.3167 41.1423 92.0263 39.0189 90.3751 36.9118C88.2139 34.1537 87.1348 31.4043 87.1348 28.7375V7.69199C87.1348 7.17136 87.4763 6.71235 87.975 6.56278L87.975 6.56278L107.107 0.823075L107.107 0.823065C107.328 0.756725 107.564 0.756747 107.785 0.823044ZM107.338 46.5161L107.446 46.5685L107.555 46.5161C108.963 45.8372 112.685 43.9483 116.358 41.2844C118.405 39.7991 120.659 37.9096 122.403 35.7755C124.144 33.6445 125.399 31.2426 125.399 28.7375V8.75515V8.56914L125.221 8.51569L107.518 3.20468L107.446 3.18313L107.374 3.20468L89.6709 8.51569L89.4927 8.56914V8.75515V28.7375C89.4927 31.2426 90.7479 33.6445 92.4892 35.7755C94.2332 37.9096 96.4867 39.7991 98.5344 41.2844L98.6812 41.082L98.5344 41.2844C102.207 43.9483 105.93 45.8372 107.338 46.5161Z" fill="black" stroke="white" stroke-width="0.5"/>
<path d="M100.392 23.0705L105.347 28.1321L114.196 18.0089" stroke="black" stroke-width="4" stroke-linecap="round" stroke-linejoin="round"/>
</svg>
