<svg width="78" height="117" viewBox="0 0 78 117" fill="none" xmlns="http://www.w3.org/2000/svg">
<path d="M18.5 89.5C16.1 84.7 16.8333 64.1667 17.5 54.5L7.5 53L1.5 57.5V93.5L4.5 105L16 111C40 120.2 63 112.167 71.5 107C37 116 21.5 95.5 18.5 89.5Z" fill="#F0BC5E"/>
<path d="M73.7603 52.7044V52.8301L73.8612 52.9051C76.1702 54.6202 77.6686 57.3655 77.6686 60.454V98.5592C77.6686 103.765 74.6548 108.5 69.9953 110.625C61.3369 114.572 50.3143 116.75 38.9592 116.75C27.604 116.75 16.5815 114.572 7.92282 110.624C3.2638 108.5 0.25 103.766 0.25 98.5592V60.454C0.25 57.365 1.74839 54.6197 4.05713 52.9051L4.15807 52.8301V52.7044V35.0511C4.15807 15.862 19.7701 0.25 38.9592 0.25C58.1483 0.25 73.7603 15.862 73.7603 35.0511V52.7044ZM70.2926 51.2774L70.5965 51.3444V51.0333V35.0511C70.5965 17.6062 56.4043 3.41379 38.9592 3.41379C21.5974 3.41379 7.45765 17.4708 7.32284 34.8011H7.32164V35.0511V51.0333V51.3442L7.62532 51.2774C8.27779 51.134 8.95402 51.0559 9.64793 51.0559H11.7242H11.9742V50.8059V35.0511C11.9742 20.172 24.0797 8.06615 38.9589 8.06615C53.8382 8.06615 65.9439 20.1718 65.9439 35.0511V50.8059V51.0559H66.1939H68.2702C68.9642 51.0559 69.6404 51.1335 70.2926 51.2774ZM62.5301 51.0559H62.7801V50.8059V35.0511C62.7801 21.916 52.0943 11.2302 38.9592 11.2302C25.824 11.2302 15.1382 21.916 15.1382 35.0511V50.8059V51.0559H15.3882H62.5301ZM68.6831 107.746C72.2223 106.132 74.5046 102.525 74.5046 98.5592V60.454C74.5046 57.0162 71.708 54.2197 68.2702 54.2197H9.64816C6.21032 54.2197 3.41379 57.0162 3.41379 60.454V98.5592C3.41379 102.525 5.69631 106.132 9.23527 107.746C17.5035 111.515 28.0596 113.586 38.9592 113.586C49.8588 113.586 60.4149 111.515 68.6831 107.746Z" fill="#0C0C0C" stroke="white" stroke-width="0.5"/>
<path d="M35.8463 83.4058L35.8463 83.4058C33.8943 82.2696 32.7246 80.2635 32.7246 78.0408C32.7246 74.603 35.5211 71.8065 38.959 71.8065C42.3968 71.8065 45.1933 74.603 45.1933 78.0408L35.8463 83.4058ZM35.8463 83.4058C36.3333 83.6892 36.6327 84.21 36.6327 84.7731V91.7193C36.6327 93.0023 37.676 94.0456 38.959 94.0456C40.2419 94.0456 41.2853 93.0023 41.2853 91.7193V84.7729C41.2853 84.21 41.5848 83.6892 42.0717 83.4056M35.8463 83.4058L42.0717 83.4056M42.0717 83.4056C44.0238 82.2695 45.1936 80.2635 45.1933 78.0408L42.0717 83.4056ZM33.4691 85.7553V85.6297L33.3683 85.5547C30.9963 83.7905 29.561 80.9972 29.561 78.0406C29.561 72.8588 33.7772 68.6425 38.9592 68.6425C44.1412 68.6425 48.3574 72.8588 48.3574 78.0406C48.3574 80.9972 46.922 83.7905 44.5501 85.5547L44.4493 85.6297V85.7553V91.7191C44.4493 94.7462 41.9863 97.2092 38.9592 97.2092C35.9321 97.2092 33.4691 94.7462 33.4691 91.7191V85.7553Z" fill="#0C0C0C" stroke="white" stroke-width="0.5"/>
<path d="M66.6882 60.454C66.6882 59.5802 67.3967 58.872 68.2702 58.872C69.144 58.872 69.8523 59.5804 69.8523 60.454V62.4081C69.8523 63.2818 69.1438 63.9901 68.2702 63.9901C67.3965 63.9901 66.6882 63.2816 66.6882 62.4081V60.454Z" fill="#0C0C0C" stroke="white" stroke-width="0.5"/>
<path d="M66.6882 70.2245C66.6882 69.3507 67.3967 68.6425 68.2702 68.6425C69.144 68.6425 69.8523 69.3509 69.8523 70.2245V85.857C69.8523 86.7308 69.1438 87.439 68.2702 87.439C67.3965 87.439 66.6882 86.7306 66.6882 85.857V70.2245Z" fill="#0C0C0C" stroke="white" stroke-width="0.5"/>
<path d="M8.06616 78.0408C8.06616 77.167 8.77458 76.4588 9.64817 76.4588C10.5217 76.4588 11.23 77.167 11.2302 78.0408C11.2302 78.0408 11.2302 78.0408 11.2302 78.0409V99.5357C11.2302 100.409 10.5218 101.118 9.64817 101.118C8.7744 101.118 8.06616 100.409 8.06616 99.5357V78.0408Z" fill="#0C0C0C" stroke="white" stroke-width="0.5"/>
</svg>
