<svg width="223" height="131" viewBox="0 0 223 131" fill="none" xmlns="http://www.w3.org/2000/svg">
<path d="M90 124.5C81.2 125.7 77.6667 99 77 85.5H70.5L66 91V120L67.5 126.5L75 128.5C87 130.1 90 126.5 90 124.5Z" fill="#F0BC5E"/>
<path d="M172 78C173.189 73.2083 178.941 63.8125 192.432 64.5625C209.297 65.5 217.73 63.9375 220 53" stroke="black" stroke-linecap="round" stroke-linejoin="round"/>
<path d="M40.1692 113.423L1 120.548" stroke="black"/>
<circle cx="26.5" cy="32.5" r="2.5" fill="black"/>
<circle cx="188.5" cy="110.5" r="2.5" fill="black"/>
<path d="M110 26.5V0" stroke="black"/>
<path d="M210 112L222.709 114.733" stroke="black"/>
<path d="M13.9995 74.0003L26.709 76.7334" stroke="black"/>
<path d="M71.9933 33C72.1119 29.1905 70.7121 20.8571 64.1641 18C55.9791 14.4286 56.6909 5.85714 57.4026 3" stroke="black"/>
<circle cx="157.5" cy="29.5" r="5" stroke="black"/>
<mask id="path-11-inside-1_151_719" fill="white">
<path fill-rule="evenodd" clip-rule="evenodd" d="M149.951 90.8214C151.467 92.3418 152.347 94.4033 152.347 96.6156C152.347 99.8071 150.521 102.612 147.805 103.982C148.368 105.108 148.666 106.356 148.666 107.659C148.666 110.851 146.837 113.659 144.12 115.025C144.959 116.704 145.206 118.636 144.783 120.558C143.958 124.283 140.45 126.985 136.441 126.985H102.652C100.093 126.985 95.9707 126.157 92.9078 124.581C91.6268 128.126 88.2254 130.666 84.2462 130.666H73.2028C68.1266 130.666 64 126.54 64 121.463V92.0141C64 86.9379 68.1266 82.8113 73.2028 82.8111H91.6083C92.6243 82.8111 93.449 83.6358 93.449 84.6518V85.3549L93.8871 85.1304L104.492 62.1638V49.6811C104.492 49.1217 104.746 48.5916 105.184 48.2418L105.188 48.2387C105.35 48.1129 108.07 46 111.855 46C116.114 46 122.898 52.7401 122.898 60.7245C122.898 65.7603 121.094 72.0291 119.968 75.449H142.706C147.661 75.449 151.876 79.1154 152.307 83.7942C152.546 86.4187 151.67 88.9404 149.951 90.8214ZM143.045 102.406C143.273 101.725 143.873 101.243 144.584 101.158C146.91 100.889 148.666 98.9383 148.666 96.6156C148.666 94.9002 147.702 93.3395 146.144 92.548C145.556 92.2424 145.173 91.646 145.147 90.9798C145.121 90.3136 145.456 89.6877 146.019 89.3418C147.827 88.2264 148.835 86.2311 148.64 84.1329C148.383 81.3279 145.776 79.1302 142.706 79.1302H117.376C116.773 79.1302 116.206 78.8321 115.86 78.3351C115.517 77.8345 115.444 77.1976 115.657 76.6344C115.658 76.6325 115.66 76.6263 115.664 76.616C115.839 76.1451 119.217 67.0651 119.217 60.7245C119.217 54.6948 113.872 49.6811 111.855 49.6811C110.268 49.6811 108.939 50.2553 108.173 50.6786V62.5649C108.173 62.83 108.115 63.095 108.004 63.338L96.9608 87.2654C96.7841 87.6445 96.4859 87.9537 96.1141 88.1378L93.4483 89.4708V120.615C95.5236 122.139 99.9282 123.304 102.652 123.304H136.441C138.738 123.304 140.734 121.817 141.186 119.763C141.551 118.113 141.065 116.512 139.854 115.371C139.331 114.878 139.143 114.13 139.368 113.449C139.596 112.768 140.196 112.286 140.906 112.201C143.229 111.933 144.985 109.982 144.985 107.659C144.985 106.393 144.466 105.207 143.531 104.327C143.008 103.834 142.821 103.087 143.045 102.406ZM89.7677 121.511C89.7421 124.533 87.2747 126.985 84.2462 126.985H73.2028C70.1584 126.985 67.6811 124.508 67.6811 121.463V92.0141C67.6811 88.9697 70.1584 86.4924 73.2028 86.4924H89.7679V88.2782C89.7674 88.2964 89.7671 88.3147 89.7671 88.3331V121.463C89.7671 121.479 89.7673 121.495 89.7677 121.511Z"/>
</mask>
<path fill-rule="evenodd" clip-rule="evenodd" d="M149.951 90.8214C151.467 92.3418 152.347 94.4033 152.347 96.6156C152.347 99.8071 150.521 102.612 147.805 103.982C148.368 105.108 148.666 106.356 148.666 107.659C148.666 110.851 146.837 113.659 144.12 115.025C144.959 116.704 145.206 118.636 144.783 120.558C143.958 124.283 140.45 126.985 136.441 126.985H102.652C100.093 126.985 95.9707 126.157 92.9078 124.581C91.6268 128.126 88.2254 130.666 84.2462 130.666H73.2028C68.1266 130.666 64 126.54 64 121.463V92.0141C64 86.9379 68.1266 82.8113 73.2028 82.8111H91.6083C92.6243 82.8111 93.449 83.6358 93.449 84.6518V85.3549L93.8871 85.1304L104.492 62.1638V49.6811C104.492 49.1217 104.746 48.5916 105.184 48.2418L105.188 48.2387C105.35 48.1129 108.07 46 111.855 46C116.114 46 122.898 52.7401 122.898 60.7245C122.898 65.7603 121.094 72.0291 119.968 75.449H142.706C147.661 75.449 151.876 79.1154 152.307 83.7942C152.546 86.4187 151.67 88.9404 149.951 90.8214ZM143.045 102.406C143.273 101.725 143.873 101.243 144.584 101.158C146.91 100.889 148.666 98.9383 148.666 96.6156C148.666 94.9002 147.702 93.3395 146.144 92.548C145.556 92.2424 145.173 91.646 145.147 90.9798C145.121 90.3136 145.456 89.6877 146.019 89.3418C147.827 88.2264 148.835 86.2311 148.64 84.1329C148.383 81.3279 145.776 79.1302 142.706 79.1302H117.376C116.773 79.1302 116.206 78.8321 115.86 78.3351C115.517 77.8345 115.444 77.1976 115.657 76.6344C115.658 76.6325 115.66 76.6263 115.664 76.616C115.839 76.1451 119.217 67.0651 119.217 60.7245C119.217 54.6948 113.872 49.6811 111.855 49.6811C110.268 49.6811 108.939 50.2553 108.173 50.6786V62.5649C108.173 62.83 108.115 63.095 108.004 63.338L96.9608 87.2654C96.7841 87.6445 96.4859 87.9537 96.1141 88.1378L93.4483 89.4708V120.615C95.5236 122.139 99.9282 123.304 102.652 123.304H136.441C138.738 123.304 140.734 121.817 141.186 119.763C141.551 118.113 141.065 116.512 139.854 115.371C139.331 114.878 139.143 114.13 139.368 113.449C139.596 112.768 140.196 112.286 140.906 112.201C143.229 111.933 144.985 109.982 144.985 107.659C144.985 106.393 144.466 105.207 143.531 104.327C143.008 103.834 142.821 103.087 143.045 102.406ZM89.7677 121.511C89.7421 124.533 87.2747 126.985 84.2462 126.985H73.2028C70.1584 126.985 67.6811 124.508 67.6811 121.463V92.0141C67.6811 88.9697 70.1584 86.4924 73.2028 86.4924H89.7679V88.2782C89.7674 88.2964 89.7671 88.3147 89.7671 88.3331V121.463C89.7671 121.479 89.7673 121.495 89.7677 121.511Z" fill="black"/>
<path d="M149.951 90.8214L149.582 90.4841L149.26 90.8365L149.597 91.1745L149.951 90.8214ZM147.805 103.982L147.58 103.535L147.135 103.759L147.358 104.205L147.805 103.982ZM144.12 115.025L143.895 114.578L143.45 114.802L143.673 115.249L144.12 115.025ZM144.783 120.558L145.271 120.666L145.271 120.665L144.783 120.558ZM92.9078 124.581L93.1366 124.136L92.6309 123.876L92.4376 124.411L92.9078 124.581ZM73.2028 82.8111V82.3111H73.2028L73.2028 82.8111ZM93.449 85.3549H92.949V86.1729L93.677 85.7999L93.449 85.3549ZM93.8871 85.1304L94.1151 85.5754L94.2687 85.4967L94.341 85.34L93.8871 85.1304ZM104.492 62.1638L104.946 62.3734L104.992 62.2736V62.1638H104.492ZM105.184 48.2418L104.878 47.8469L104.873 47.8511L105.184 48.2418ZM105.188 48.2387L105.495 48.6337L105.495 48.6336L105.188 48.2387ZM119.968 75.449L119.493 75.2925L119.277 75.949H119.968V75.449ZM152.307 83.7942L152.805 83.7488L152.805 83.7483L152.307 83.7942ZM144.584 101.158L144.526 100.661L144.525 100.662L144.584 101.158ZM143.045 102.406L142.571 102.247L142.57 102.249L143.045 102.406ZM148.666 96.6156H148.166V96.6156L148.666 96.6156ZM146.144 92.548L145.914 92.9918L145.918 92.9937L146.144 92.548ZM146.019 89.3418L146.281 89.7678L146.282 89.7673L146.019 89.3418ZM148.64 84.1329L148.142 84.1786L148.142 84.1792L148.64 84.1329ZM115.86 78.3351L115.447 78.6174L115.449 78.6208L115.86 78.3351ZM115.657 76.6344L116.125 76.8116L116.128 76.8033L115.657 76.6344ZM115.664 76.616L115.196 76.4417L115.196 76.4417L115.664 76.616ZM108.173 50.6786L107.932 50.241L107.673 50.3837V50.6786H108.173ZM108.004 63.338L108.458 63.5475L108.459 63.5449L108.004 63.338ZM96.9608 87.2654L97.414 87.4767L97.4148 87.4749L96.9608 87.2654ZM96.1141 88.1378L95.8922 87.6898L95.8904 87.6906L96.1141 88.1378ZM93.4483 89.4708L93.2247 89.0236L92.9483 89.1618V89.4708H93.4483ZM93.4483 120.615H92.9483V120.868L93.1524 121.018L93.4483 120.615ZM141.186 119.763L140.698 119.655L140.698 119.655L141.186 119.763ZM139.854 115.371L139.511 115.735L139.511 115.735L139.854 115.371ZM139.368 113.449L138.894 113.291L138.893 113.293L139.368 113.449ZM140.906 112.201L140.849 111.705L140.847 111.705L140.906 112.201ZM143.531 104.327L143.188 104.691L143.188 104.692L143.531 104.327ZM89.7677 121.511L90.2677 121.515L90.2677 121.507L90.2675 121.498L89.7677 121.511ZM89.7679 86.4924H90.2679V85.9924H89.7679V86.4924ZM89.7679 88.2782L90.2677 88.2929L90.2679 88.2855V88.2782H89.7679ZM152.847 96.6156C152.847 94.2687 151.913 92.0808 150.305 90.4683L149.597 91.1745C151.021 92.6027 151.847 94.5378 151.847 96.6156H152.847ZM148.03 104.428C150.91 102.976 152.847 100.002 152.847 96.6156H151.847C151.847 99.6125 150.133 102.248 147.58 103.535L148.03 104.428ZM149.166 107.659C149.166 106.279 148.85 104.954 148.252 103.758L147.358 104.205C147.886 105.262 148.166 106.433 148.166 107.659H149.166ZM144.344 115.472C147.225 114.024 149.166 111.045 149.166 107.659H148.166C148.166 110.656 146.448 113.295 143.895 114.578L144.344 115.472ZM145.271 120.665C145.718 118.633 145.458 116.584 144.567 114.801L143.673 115.249C144.46 116.823 144.693 118.639 144.294 120.45L145.271 120.665ZM136.441 127.485C140.667 127.485 144.392 124.636 145.271 120.666L144.294 120.45C143.524 123.929 140.233 126.485 136.441 126.485V127.485ZM102.652 127.485H136.441V126.485H102.652V127.485ZM92.6791 125.026C95.8178 126.64 100.02 127.485 102.652 127.485V126.485C100.167 126.485 96.1235 125.673 93.1366 124.136L92.6791 125.026ZM84.2462 131.166C88.4431 131.166 92.0279 128.487 93.3781 124.751L92.4376 124.411C91.2257 127.765 88.0078 130.166 84.2462 130.166V131.166ZM73.2028 131.166H84.2462V130.166H73.2028V131.166ZM63.5 121.463C63.5 126.816 67.8505 131.166 73.2028 131.166V130.166C68.4027 130.166 64.5 126.263 64.5 121.463H63.5ZM63.5 92.0141V121.463H64.5V92.0141H63.5ZM73.2028 82.3111C67.8505 82.3113 63.5 86.6618 63.5 92.0141H64.5C64.5 87.2141 68.4028 83.3113 73.2028 83.3111L73.2028 82.3111ZM91.6083 82.3111H73.2028V83.3111H91.6083V82.3111ZM93.949 84.6518C93.949 83.3596 92.9005 82.3111 91.6083 82.3111V83.3111C92.3482 83.3111 92.949 83.9119 92.949 84.6518H93.949ZM93.949 85.3549V84.6518H92.949V85.3549H93.949ZM93.6591 84.6854L93.221 84.9099L93.677 85.7999L94.1151 85.5754L93.6591 84.6854ZM104.038 61.9541L93.4331 84.9208L94.341 85.34L104.946 62.3734L104.038 61.9541ZM103.992 49.6811V62.1638H104.992V49.6811H103.992ZM104.873 47.8511C104.315 48.296 103.992 48.9701 103.992 49.6811H104.992C104.992 49.2732 105.178 48.8871 105.496 48.6326L104.873 47.8511ZM104.882 47.8438L104.878 47.8469L105.491 48.6367L105.495 48.6337L104.882 47.8438ZM111.855 45.5C107.897 45.5 105.065 47.7015 104.882 47.8439L105.495 48.6336C105.636 48.5242 108.243 46.5 111.855 46.5V45.5ZM123.398 60.7245C123.398 56.5925 121.645 52.8019 119.358 50.0486C118.214 48.6704 116.926 47.5403 115.638 46.7516C114.357 45.9665 113.043 45.5 111.855 45.5V46.5C112.796 46.5 113.927 46.876 115.116 47.6042C116.298 48.3288 117.505 49.3827 118.589 50.6876C120.759 53.3005 122.398 56.8721 122.398 60.7245H123.398ZM120.443 75.6054C121.57 72.1831 123.398 65.8475 123.398 60.7245H122.398C122.398 65.6731 120.619 71.8752 119.493 75.2925L120.443 75.6054ZM142.706 74.949H119.968V75.949H142.706V74.949ZM152.805 83.7483C152.348 78.7911 147.898 74.949 142.706 74.949V75.949C147.424 75.949 151.404 79.4396 151.809 83.84L152.805 83.7483ZM150.32 91.1587C152.133 89.1748 153.057 86.5145 152.805 83.7488L151.809 83.8396C152.035 86.3229 151.207 88.706 149.582 90.4841L150.32 91.1587ZM144.525 100.662C143.625 100.769 142.861 101.381 142.571 102.247L143.519 102.565C143.685 102.069 144.122 101.717 144.643 101.655L144.525 100.662ZM148.166 96.6156C148.166 98.6804 146.605 100.421 144.526 100.661L144.641 101.655C147.216 101.357 149.166 99.1962 149.166 96.6155L148.166 96.6156ZM145.918 92.9937C147.31 93.7014 148.166 95.0917 148.166 96.6156H149.166C149.166 94.7087 148.093 92.9775 146.371 92.1022L145.918 92.9937ZM144.647 90.9991C144.68 91.8468 145.167 92.6042 145.914 92.9918L146.375 92.1042C145.944 91.8805 145.665 91.4453 145.647 90.9605L144.647 90.9991ZM145.758 88.9157C145.04 89.3565 144.615 90.1529 144.647 90.9991L145.647 90.9605C145.628 90.4742 145.872 90.0189 146.281 89.7678L145.758 88.9157ZM148.142 84.1792C148.32 86.085 147.405 87.899 145.757 88.9163L146.282 89.7673C148.248 88.5538 149.351 86.3773 149.138 84.0866L148.142 84.1792ZM142.706 79.6302C145.554 79.6302 147.912 81.6653 148.142 84.1786L149.138 84.0872C148.854 80.9904 145.999 78.6302 142.706 78.6302V79.6302ZM117.376 79.6302H142.706V78.6302H117.376V79.6302ZM115.449 78.6208C115.888 79.2508 116.608 79.6302 117.376 79.6302V78.6302C116.938 78.6302 116.524 78.4133 116.27 78.0494L115.449 78.6208ZM115.19 76.4572C114.919 77.1724 115.012 77.981 115.447 78.6174L116.273 78.0528C116.023 77.688 115.969 77.2228 116.125 76.8116L115.19 76.4572ZM115.196 76.4417C115.193 76.4495 115.189 76.46 115.187 76.4655L116.128 76.8033C116.127 76.8049 116.127 76.8058 116.127 76.805C116.128 76.8045 116.128 76.8036 116.128 76.8022C116.13 76.7994 116.131 76.7955 116.133 76.7903L115.196 76.4417ZM118.717 60.7245C118.717 63.8243 117.888 67.6257 117.025 70.7377C116.164 73.8395 115.281 76.2122 115.196 76.4417L116.133 76.7903C116.223 76.5489 117.116 74.1462 117.988 71.0051C118.857 67.8742 119.717 63.9653 119.717 60.7245H118.717ZM111.855 50.1811C112.194 50.1811 112.798 50.4134 113.564 50.9646C114.307 51.4986 115.131 52.2802 115.9 53.2519C117.442 55.2 118.717 57.8546 118.717 60.7245H119.717C119.717 57.5647 118.32 54.6976 116.684 52.6314C115.865 51.5959 114.975 50.7472 114.148 50.1527C113.345 49.5755 112.524 49.1811 111.855 49.1811V50.1811ZM108.415 51.1162C109.141 50.715 110.385 50.1811 111.855 50.1811V49.1811C110.152 49.1811 108.737 49.7957 107.932 50.241L108.415 51.1162ZM108.673 62.5649V50.6786H107.673V62.5649H108.673ZM108.459 63.5449C108.598 63.2388 108.673 62.9034 108.673 62.5649H107.673C107.673 62.7566 107.631 62.9512 107.549 63.1311L108.459 63.5449ZM97.4148 87.4749L108.458 63.5475L107.55 63.1285L96.5068 87.0559L97.4148 87.4749ZM96.3359 88.5859C96.8121 88.3502 97.1905 87.9561 97.414 87.4767L96.5076 87.0542C96.3777 87.3329 96.1598 87.5573 95.8922 87.6898L96.3359 88.5859ZM93.672 89.918L96.3377 88.5851L95.8904 87.6906L93.2247 89.0236L93.672 89.918ZM93.9483 120.615V89.4708H92.9483V120.615H93.9483ZM102.652 122.804C101.349 122.804 99.6147 122.523 97.9432 122.05C96.2657 121.575 94.7118 120.923 93.7443 120.212L93.1524 121.018C94.2602 121.832 95.9462 122.524 97.6708 123.012C99.4013 123.502 101.231 123.804 102.652 123.804V122.804ZM136.441 122.804H102.652V123.804H136.441V122.804ZM140.698 119.655C140.302 121.45 138.535 122.804 136.441 122.804V123.804C138.942 123.804 141.165 122.183 141.675 119.87L140.698 119.655ZM139.511 115.735C140.592 116.753 141.025 118.174 140.698 119.655L141.675 119.87C142.076 118.052 141.538 116.271 140.197 115.007L139.511 115.735ZM138.893 113.293C138.608 114.158 138.846 115.108 139.511 115.735L140.197 115.007C139.816 114.647 139.679 114.103 139.843 113.606L138.893 113.293ZM140.847 111.705C139.947 111.812 139.184 112.424 138.894 113.291L139.842 113.608C140.008 113.113 140.445 112.76 140.966 112.698L140.847 111.705ZM144.485 107.659C144.485 109.724 142.923 111.465 140.849 111.705L140.964 112.698C143.535 112.401 145.485 110.239 145.485 107.659H144.485ZM143.188 104.692C144.025 105.479 144.485 106.533 144.485 107.659H145.485C145.485 106.252 144.907 104.936 143.874 103.963L143.188 104.692ZM142.57 102.249C142.285 103.114 142.524 104.064 143.188 104.691L143.874 103.964C143.493 103.604 143.356 103.06 143.52 102.562L142.57 102.249ZM89.2677 121.507C89.2444 124.255 86.9999 126.485 84.2462 126.485V127.485C87.5494 127.485 90.2397 124.812 90.2677 121.515L89.2677 121.507ZM84.2462 126.485H73.2028V127.485H84.2462V126.485ZM73.2028 126.485C70.4346 126.485 68.1811 124.231 68.1811 121.463H67.1811C67.1811 124.784 69.8823 127.485 73.2028 127.485V126.485ZM68.1811 121.463V92.0141H67.1811V121.463H68.1811ZM68.1811 92.0141C68.1811 89.2459 70.4346 86.9924 73.2028 86.9924V85.9924C69.8823 85.9924 67.1811 88.6936 67.1811 92.0141H68.1811ZM73.2028 86.9924H89.7679V85.9924H73.2028V86.9924ZM89.2679 86.4924V88.2782H90.2679V86.4924H89.2679ZM89.2681 88.2636C89.2674 88.2867 89.2671 88.3098 89.2671 88.3331H90.2671C90.2671 88.3196 90.2673 88.3062 90.2677 88.2929L89.2681 88.2636ZM89.2671 88.3331V121.463H90.2671V88.3331H89.2671ZM89.2671 121.463C89.2671 121.483 89.2673 121.503 89.2679 121.523L90.2675 121.498C90.2672 121.487 90.2671 121.475 90.2671 121.463H89.2671Z" fill="white" mask="url(#path-11-inside-1_151_719)"/>
</svg>
