<svg width="40" height="40" viewBox="0 0 40 40" fill="none" xmlns="http://www.w3.org/2000/svg">
<mask id="mask0_186_308" style="mask-type:alpha" maskUnits="userSpaceOnUse" x="0" y="0" width="40" height="40">
<circle cx="20" cy="20" r="20" fill="#FFE800"/>
</mask>
<g mask="url(#mask0_186_308)">
<circle cx="20" cy="20" r="20" fill="#FFE800"/>
<path d="M19.787 9C15.387 9 11.7902 12.5968 11.7902 16.9968C11.7902 21.3969 15.387 24.9937 19.787 24.9937C24.187 24.9937 27.7838 21.3969 27.7838 16.9968C27.7838 12.5968 24.187 9 19.787 9Z" fill="black"/>
<path d="M35.9316 32.5402C35.6884 31.9514 35.3642 31.4019 34.9994 30.8916C33.1349 28.2224 30.2572 26.456 27.0146 26.0242C26.6093 25.985 26.1635 26.0634 25.8392 26.299C24.1368 27.5158 22.1102 28.1438 20.0025 28.1438C17.8948 28.1438 15.8682 27.5158 14.1659 26.299C13.8416 26.0634 13.3957 25.9457 12.9904 26.0242C9.74785 26.456 6.82956 28.2224 5.00563 30.8916C4.64084 31.4019 4.31655 31.9907 4.07341 32.5402C3.95184 32.7757 3.99234 33.0505 4.11391 33.286C4.4382 33.8355 4.84348 34.3851 5.20827 34.8561C5.7757 35.6019 6.3837 36.2692 7.07277 36.8972C7.6402 37.4467 8.2887 37.957 8.93728 38.4673C12.1393 40.7832 15.9899 42 19.962 42C23.9342 42 27.7847 40.7832 30.9867 38.4673C31.6352 37.9963 32.2837 37.4467 32.8512 36.8972C33.4997 36.2692 34.1482 35.6019 34.7158 34.8561C35.121 34.3458 35.4859 33.8355 35.8101 33.286C36.0127 33.0505 36.0532 32.7756 35.9316 32.5402Z" fill="black"/>
</g>
</svg>
