<svg width="69" height="53" viewBox="0 0 69 53" fill="none" xmlns="http://www.w3.org/2000/svg">
<path d="M66.5595 47.2025C37.4058 49.371 25.2986 30.4372 22.8892 20.6992L15.9622 20.0969C10.6415 20.7996 0.240947 24.9156 1.2047 35.7579C2.16846 46.6002 10.0391 50.3147 13.854 50.8166C28.4108 50.917 58.488 51.0576 62.343 50.8166C66.1981 50.5757 66.7603 48.3068 66.5595 47.2025Z" fill="#F0BC5E"/>
<path d="M16.5027 39.6814H16.5025C15.3325 39.6798 14.2176 39.1839 13.4329 38.3161C12.6482 37.4482 12.2667 36.2892 12.3825 35.125L12.3831 35.1193L12.3832 35.1193C12.6784 32.9554 14.5486 31.3564 16.7319 31.4008H56.9138C57.4563 31.4008 57.8961 30.9611 57.8961 30.4186C57.8961 29.8761 57.4563 29.4363 56.9138 29.4363H16.7304H16.7287C13.5355 29.4025 10.8247 31.7687 10.4265 34.937C10.2581 36.6521 10.8216 38.3586 11.9783 39.6362C13.1355 40.9143 14.7786 41.6442 16.5027 41.6459C16.5027 41.6459 16.5028 41.6459 16.5028 41.6459M16.5027 39.6814V41.802L16.5028 41.6459M16.5027 39.6814H56.9138C62.0295 39.6814 66.1766 35.5343 66.1766 30.4186C66.1766 25.3029 62.0295 21.1558 56.9138 21.1558H16.5027L16.5025 21.1558C12.5627 21.1601 8.79666 22.7785 6.082 25.6338C3.36734 28.4892 1.94115 32.3321 2.13571 36.2671L2.13587 36.2695C2.64005 44.045 9.15972 50.0552 16.9504 49.9265H62.0363H62.0366C63.2029 49.9247 64.3146 49.4324 65.0998 48.5701C65.8917 47.7047 66.2762 46.5422 66.1565 45.3753L66.1559 45.3706C65.8678 43.2052 63.999 41.6018 61.8151 41.6459M16.5027 39.6814L61.8151 41.6459M16.5028 41.6459L61.8151 41.6459M16.5028 41.6459L61.8151 41.6459M64.5464 11.66L67.9273 28.2261C67.9273 28.2266 67.9273 28.2272 67.9272 28.2278C67.9268 28.2363 67.9266 28.248 67.9281 28.2616L67.9275 28.2617L67.9301 28.2745C68.7869 32.6219 66.9961 37.0652 63.3642 39.6034L63.0807 39.8015L63.4168 39.8831C65.939 40.4952 67.8128 42.6138 68.1124 45.1918C68.2801 46.9058 67.716 48.611 66.5591 49.8869C65.4019 51.1632 63.7592 51.8911 62.0364 51.891H16.9489V51.8909L16.9443 51.8911C11.9612 52.0397 7.18404 49.9 3.97706 46.0832C0.770082 42.2663 -0.514145 37.1919 0.491128 32.309L0.495328 32.2886L0.494033 32.2678C0.49296 32.2506 0.492774 32.2333 0.493476 32.2161L4.88706 11.6588C6.23607 5.44317 11.725 1.00114 18.0853 0.97781H51.347C57.7076 1.00158 63.1966 5.44359 64.5462 11.6593C64.5463 11.6595 64.5463 11.6597 64.5464 11.66ZM6.80857 12.0673L6.80848 12.0677L4.1698 24.3948L4.05635 24.9248L4.43431 24.5364C4.47981 24.4896 4.52023 24.4416 4.55662 24.3983L4.55863 24.3959C4.59526 24.3523 4.62777 24.3136 4.66277 24.2771L4.66365 24.2762C7.73746 21.0179 12.0228 19.1772 16.5022 19.1913H16.5027H56.9138C59.6697 19.1921 62.328 20.2122 64.3771 22.0551L64.7292 22.3718L64.6344 21.9079L62.623 12.0601L62.6226 12.0581C61.4667 6.75167 56.7787 2.96129 51.3479 2.94231H51.3473L18.085 2.9423L18.0844 2.94231C12.6506 2.96213 7.96114 6.75705 6.80857 12.0673Z" fill="#0C0C0C" stroke="white" stroke-width="0.312187"/>
<path d="M10.0971 13.7714L10.0967 13.7713C9.84175 13.7173 9.61872 13.5642 9.47668 13.3457C9.33471 13.1273 9.2853 12.8615 9.33931 12.6067C10.2343 8.4888 13.8714 5.54645 18.0854 5.53115H27.3171C27.8595 5.53115 28.2993 5.97092 28.2993 6.5134C28.2993 7.05588 27.8595 7.49565 27.3171 7.49565L18.0851 7.49565L18.0846 7.49565C14.7973 7.50698 11.96 9.80207 11.2619 13.0143L11.2617 13.015C11.1654 13.4682 10.7654 13.7924 10.3021 13.793H10.302C10.2331 13.7931 10.1644 13.7858 10.0971 13.7714Z" fill="#0C0C0C" stroke="white" stroke-width="0.312187"/>
<path d="M32.8525 6.5134C32.8525 7.05588 32.4128 7.49565 31.8703 7.49565C31.3278 7.49565 30.888 7.05588 30.888 6.5134C30.888 5.97092 31.3278 5.53115 31.8703 5.53115C32.4128 5.53115 32.8525 5.97092 32.8525 6.5134Z" fill="#0C0C0C" stroke="white" stroke-width="0.312187"/>
</svg>
