<svg width="28" height="28" viewBox="0 0 28 28" fill="none" xmlns="http://www.w3.org/2000/svg">
<path d="M13.0727 1.3148L2.2368 5.9334C1.49948 6.24767 1.021 6.97175 1.021 7.77325V20.6054C1.021 21.4273 1.52388 22.1656 2.28875 22.4665L13.0487 26.7C13.5374 26.8922 14.0821 26.8846 14.5652 26.6787L25.3858 22.0666C26.1232 21.7523 26.6016 21.0282 26.6016 20.2268V7.20593C26.6016 6.37355 26.0861 5.6282 25.3072 5.33453L14.5626 1.28325C14.0804 1.10147 13.5467 1.11277 13.0727 1.3148Z" stroke="black"/>
<path d="M1.021 6.66125L12.7824 11.5618C13.304 11.7792 13.8933 11.7657 14.4044 11.5248L25.7 6.20001" stroke="black"/>
<path d="M13.6017 11.9032V26.7903" stroke="black"/>
<path d="M1 11.4L14 16.6" stroke="black"/>
<path d="M1 15.3L14 20.5" stroke="black"/>
<path d="M1 19.2L14 24.4" stroke="black"/>
</svg>
