<svg width="38" height="38" viewBox="0 0 38 38" fill="none" xmlns="http://www.w3.org/2000/svg">
<mask id="mask0_186_259" style="mask-type:alpha" maskUnits="userSpaceOnUse" x="0" y="0" width="38" height="38">
<rect width="38" height="38" fill="#C4C4C4"/>
</mask>
<g mask="url(#mask0_186_259)">
<path d="M27.1255 10.1029H24.8228V8.52571C24.8228 8.38629 24.7675 8.25257 24.6689 8.15398C24.5703 8.05539 24.4366 8 24.2971 8C24.1577 8 24.024 8.05539 23.9254 8.15398C23.8268 8.25257 23.7714 8.38629 23.7714 8.52571V10.1029H14.3086V8.52571C14.3086 8.38629 14.2532 8.25257 14.1546 8.15398C14.056 8.05539 13.9223 8 13.7829 8C13.6434 8 13.5097 8.05539 13.4111 8.15398C13.3125 8.25257 13.2571 8.38629 13.2571 8.52571V10.1029H10.9545C10.1709 10.1029 9.41944 10.4141 8.86536 10.9682C8.31128 11.5223 8 12.2738 8 13.0574V27.1255C8 27.9091 8.31128 28.6606 8.86536 29.2146C9.41944 29.7687 10.1709 30.08 10.9545 30.08H27.1255C27.9091 30.08 28.6606 29.7687 29.2146 29.2146C29.7687 28.6606 30.08 27.9091 30.08 27.1255V13.0574C30.08 12.2738 29.7687 11.5223 29.2146 10.9682C28.6606 10.4141 27.9091 10.1029 27.1255 10.1029V10.1029ZM10.9545 11.1543H27.1255C27.6302 11.1543 28.1143 11.3548 28.4712 11.7117C28.8281 12.0686 29.0286 12.5526 29.0286 13.0574V14.3086H9.05143V13.0574C9.05143 12.5526 9.25193 12.0686 9.60883 11.7117C9.96573 11.3548 10.4498 11.1543 10.9545 11.1543V11.1543ZM27.1255 29.0286H10.9545C10.4498 29.0286 9.96573 28.8281 9.60883 28.4712C9.25193 28.1143 9.05143 27.6302 9.05143 27.1255V15.36H29.0286V27.1255C29.0286 27.6302 28.8281 28.1143 28.4712 28.4712C28.1143 28.8281 27.6302 29.0286 27.1255 29.0286V29.0286Z" fill="black"/>
<rect x="17" y="21" width="9" height="6" rx="2" stroke="black" stroke-linejoin="round"/>
</g>
</svg>
