<svg width="50" height="74" viewBox="0 0 50 74" fill="none" xmlns="http://www.w3.org/2000/svg">
<path d="M12.5409 55.8815C11.0424 52.8845 11.5003 40.064 11.9165 34.0284L5.67276 33.0919L1.92651 35.9015V58.379L3.79964 65.5593L10.9799 69.3056C25.9649 75.0498 40.3256 70.034 45.6327 66.8081C24.0918 72.4275 14.414 59.6278 12.5409 55.8815Z" fill="#F0BC5E"/>
<path d="M47.044 32.9073V32.9858L47.1071 33.0326C48.5487 34.1035 49.4843 35.8175 49.4843 37.746V61.5379C49.4843 64.7884 47.6025 67.7449 44.6933 69.0712C39.2872 71.5356 32.405 72.8957 25.3151 72.8957C18.2252 72.8957 11.3431 71.5356 5.9368 69.071C3.02782 67.7449 1.14608 64.7886 1.14608 61.5379V37.746C1.14608 35.8173 2.08164 34.1032 3.52316 33.0326L3.58619 32.9858V32.9073V21.885C3.58619 9.90383 13.3339 0.156094 25.3151 0.156094C37.2963 0.156094 47.044 9.90383 47.044 21.885V32.9073ZM44.8789 32.0163L45.0686 32.0581V31.8639V21.885C45.0686 10.9928 36.2074 2.13148 25.3151 2.13148C14.4749 2.13148 5.64636 10.9083 5.56219 21.7289H5.56144V21.885V31.8639V32.058L5.75105 32.0163C6.15843 31.9267 6.58066 31.878 7.01391 31.878H8.3103H8.46639V31.7219V21.885C8.46639 12.5949 16.0247 5.0363 25.315 5.0363C34.6052 5.0363 42.1637 12.5948 42.1637 21.885V31.7219V31.878H42.3198H43.6162C44.0495 31.878 44.4717 31.9265 44.8789 32.0163ZM40.0322 31.878H40.1883V31.7219V21.885C40.1883 13.6838 33.5164 7.01183 25.3151 7.01183C17.1139 7.01183 10.4419 13.6838 10.4419 21.885V31.7219V31.878H10.598H40.0322ZM43.874 67.2737C46.0837 66.2664 47.5087 64.0142 47.5087 61.5379V37.746C47.5087 35.5995 45.7627 33.8534 43.6162 33.8534H7.01406C4.86756 33.8534 3.12147 35.5995 3.12147 37.746V61.5379C3.12147 64.0142 4.54662 66.2664 6.75626 67.2737C11.9187 69.6271 18.5097 70.9203 25.3151 70.9203C32.1206 70.9203 38.7115 69.6271 43.874 67.2737Z" fill="#0C0C0C" stroke="white" stroke-width="0.312187"/>
<path d="M23.3715 52.0765L23.3714 52.0765C22.1527 51.367 21.4224 50.1145 21.4224 48.7267C21.4224 46.5802 23.1684 44.8341 25.3149 44.8341C27.4614 44.8341 29.2075 46.5802 29.2075 48.7267L23.3715 52.0765ZM23.3715 52.0765C23.6756 52.2534 23.8625 52.5786 23.8625 52.9302V57.2672C23.8625 58.0683 24.5139 58.7197 25.3149 58.7197C26.116 58.7197 26.7674 58.0683 26.7674 57.2672V52.9301C26.7674 52.5786 26.9544 52.2534 27.2585 52.0763M23.3715 52.0765L27.2585 52.0763M27.2585 52.0763C28.4773 51.367 29.2077 50.1145 29.2075 48.7267L27.2585 52.0763ZM21.8872 53.5434V53.465L21.8243 53.4182C20.3433 52.3167 19.4471 50.5726 19.4471 48.7266C19.4471 45.4912 22.0796 42.8586 25.3151 42.8586C28.5506 42.8586 31.1831 45.4912 31.1831 48.7266C31.1831 50.5726 30.2869 52.3167 28.8059 53.4182L28.7429 53.465V53.5434V57.2671C28.7429 59.1571 27.2051 60.695 25.3151 60.695C23.425 60.695 21.8872 59.1571 21.8872 57.2671V53.5434Z" fill="#0C0C0C" stroke="white" stroke-width="0.312187"/>
<path d="M42.6283 37.746C42.6283 37.2004 43.0706 36.7582 43.616 36.7582C44.1616 36.7582 44.6038 37.2005 44.6038 37.746V38.966C44.6038 39.5116 44.1615 39.9538 43.616 39.9538C43.0705 39.9538 42.6283 39.5115 42.6283 38.966V37.746Z" fill="#0C0C0C" stroke="white" stroke-width="0.312187"/>
<path d="M42.6283 43.8464C42.6283 43.3008 43.0706 42.8586 43.616 42.8586C44.1616 42.8586 44.6038 43.3009 44.6038 43.8464V53.6069C44.6038 54.1525 44.1615 54.5947 43.616 54.5947C43.0705 54.5947 42.6283 54.1524 42.6283 53.6069V43.8464Z" fill="#0C0C0C" stroke="white" stroke-width="0.312187"/>
<path d="M6.02621 48.7267C6.02621 48.1811 6.46853 47.7389 7.01398 47.7389C7.55938 47.7389 8.0016 48.1811 8.00174 48.7267C8.00174 48.7267 8.00174 48.7267 8.00174 48.7267V62.1475C8.00174 62.6931 7.55942 63.1353 7.01398 63.1353C6.46841 63.1353 6.02621 62.693 6.02621 62.1475V48.7267Z" fill="#0C0C0C" stroke="white" stroke-width="0.312187"/>
</svg>
